<?xml version="1.0" encoding="UTF-8"?>
<svg version="1.1" xmlns="http://www.w3.org/2000/svg" width="1414" height="1414">
<path d="M0 0 C0.03427832 65.5177587 0.06607738 131.03551845 0.08468628 196.55328369 C0.08496239 197.52293617 0.08523851 198.49258865 0.08552299 199.49162455 C0.09150878 220.56468301 0.09704914 241.63774157 0.10213066 262.71080028 C0.10462534 273.04499317 0.10721844 283.37918605 0.10986328 293.71337891 C0.11025556 295.25594517 0.11025556 295.25594517 0.11065576 296.82967438 C0.11917876 330.16354735 0.13420161 363.49741354 0.15259444 396.8312824 C0.17146083 431.08558558 0.18377117 465.339885 0.18782998 499.59419329 C0.18840629 504.43215233 0.18905757 509.27011135 0.18975449 514.10807037 C0.18988933 515.06025198 0.19002418 516.01243358 0.19016311 516.99346918 C0.19252673 532.32219336 0.20180335 547.65090595 0.21366407 562.9796254 C0.22544002 578.38940919 0.22993558 593.79918149 0.22700275 609.20896962 C0.22548139 618.36466058 0.22953904 627.52030945 0.24159509 636.67599281 C0.24910115 642.79423324 0.24932286 648.91244613 0.24366363 655.03068847 C0.2406477 658.51533083 0.24075897 661.99989365 0.24976636 665.48452744 C0.25779195 669.24410718 0.25346603 673.00348111 0.24609566 676.76305771 C0.25134968 677.83692755 0.25660371 678.9107974 0.26201695 680.01720876 C0.22138145 689.19012229 -0.65006602 698.38588404 -4 707 C-4.66 707 -5.32 707 -6 707 C-6.66 709.64 -7.32 712.28 -8 715 C-8.66 715 -9.32 715 -10 715 C-10.28875 715.5775 -10.5775 716.155 -10.875 716.75 C-11.91666667 718.83333333 -12.95833333 720.91666667 -14 723 C-14.66 723 -15.32 723 -16 723 C-16.20109375 723.55558594 -16.4021875 724.11117187 -16.609375 724.68359375 C-18.54419749 727.90648626 -21.28445928 729.84995452 -24.25 732.0625 C-24.81074219 732.49626953 -25.37148437 732.93003906 -25.94921875 733.37695312 C-42.27706088 745.76424213 -61.47991173 744.53922596 -80.98522949 744.2746582 C-84.37807111 744.23313418 -87.77103798 744.21534354 -91.1640625 744.1953125 C-97.77635957 744.1516103 -104.38811125 744.08498027 -111 744 C-110.99962028 742.80946852 -110.99924056 741.61893705 -110.99884933 740.39232886 C-110.98218793 687.94843276 -110.96675911 635.50453644 -110.95765686 583.06063843 C-110.95744977 581.87052924 -110.95744977 581.87052924 -110.95723851 580.65637745 C-110.95424592 563.4154225 -110.95147569 546.17446751 -110.94893467 528.93351249 C-110.94768728 520.47911248 -110.94639074 512.02471249 -110.94506836 503.5703125 C-110.9449376 502.72897758 -110.94480684 501.88764266 -110.94467212 501.02081275 C-110.94040729 473.72827249 -110.9328934 446.4357343 -110.92370278 419.14319529 C-110.91427893 391.10726548 -110.90811659 363.07133682 -110.90608501 335.03540546 C-110.90579684 331.07967842 -110.9054712 327.12395137 -110.90512276 323.16822433 C-110.90502162 322.00035602 -110.90502162 322.00035602 -110.90491844 320.80889441 C-110.90373462 308.25282114 -110.89909091 295.6967514 -110.89316797 283.14067957 C-110.88729332 270.53158908 -110.88502885 257.9225021 -110.88649862 245.3134103 C-110.8871944 238.47585904 -110.88625422 231.63831727 -110.88079453 224.8007679 C-110.87595948 218.55116278 -110.87566206 212.30157511 -110.87910111 206.05196922 C-110.87952669 203.78142339 -110.87823185 201.51087652 -110.87511682 199.2403328 C-110.87115075 196.17309175 -110.87323797 193.10591519 -110.87695217 190.03867531 C-110.87301165 188.69168662 -110.87301165 188.69168662 -110.86899152 187.31748605 C-110.75238275 183.02318622 -110.75238275 183.02318622 -112 179 C-116.455 180.485 -116.455 180.485 -121 182 C-121 182.66 -121 183.32 -121 184 C-122.16015625 184.56267578 -122.16015625 184.56267578 -123.34375 185.13671875 C-128.67372027 187.7555284 -133.86212155 190.411781 -138.8515625 193.6328125 C-141.65854027 195.41907108 -144.51129621 197.11876546 -147.375 198.8125 C-148.39335938 199.41707031 -149.41171875 200.02164063 -150.4609375 200.64453125 C-153 202 -153 202 -155 202 C-155 202.66 -155 203.32 -155 204 C-156.95585325 205.00484204 -158.91476237 206.00373805 -160.875 207 C-162.51082031 207.8353125 -162.51082031 207.8353125 -164.1796875 208.6875 C-167 210 -167 210 -169 210 C-169 210.66 -169 211.32 -169 212 C-170.95585325 213.00484204 -172.91476237 214.00373805 -174.875 215 C-176.51082031 215.8353125 -176.51082031 215.8353125 -178.1796875 216.6875 C-181 218 -181 218 -183 218 C-183 218.66 -183 219.32 -183 220 C-183.70125 220.37511719 -184.4025 220.75023437 -185.125 221.13671875 C-190.33721728 223.94820008 -195.43042988 226.80694216 -200.34375 230.1171875 C-202 231 -202 231 -205 231 C-205 231.66 -205 232.32 -205 233 C-205.71800781 233.37769531 -206.43601562 233.75539063 -207.17578125 234.14453125 C-214.17174814 237.86467803 -221.07645469 241.72370966 -227.9375 245.6875 C-228.7416333 246.15067627 -229.5457666 246.61385254 -230.37426758 247.09106445 C-233.80207594 249.08010147 -237.17675264 251.08344301 -240.44140625 253.33203125 C-243 255 -243 255 -245 255 C-245 255.66 -245 256.32 -245 257 C-248.36647971 260.26127722 -251.68143801 261.78220788 -256.015625 263.28125 C-258.79654765 264.28851332 -261.36900384 265.65526863 -264 267 C-265.65910004 267.68528045 -267.32332564 268.35891863 -269 269 C-269 269.66 -269 270.32 -269 271 C-270.12277344 271.58007812 -271.24554687 272.16015625 -272.40234375 272.7578125 C-285.12598937 279.27275137 -285.12598937 279.27275137 -296.79296875 287.4765625 C-299.10296722 289.07107472 -301.45709329 290.07116278 -304.04541016 291.13330078 C-307.75040012 292.77615793 -311.19830407 294.88462333 -314.6875 296.9375 C-315.50114014 297.4126001 -316.31478027 297.8877002 -317.15307617 298.37719727 C-323.39249714 302.03080494 -329.6072983 305.72612275 -335.8125 309.4375 C-336.64160889 309.93306396 -337.47071777 310.42862793 -338.32495117 310.93920898 C-341.69003953 312.9619868 -345.00623213 315.00418954 -348.265625 317.1953125 C-350.77029453 318.84839439 -353.22459553 320.16678786 -355.9375 321.4375 C-358.96935268 322.91733285 -361.73889991 324.41354993 -364.4375 326.4375 C-368.03313906 329.13214366 -371.889162 331.15724831 -375.84765625 333.26953125 C-380.09243455 335.59968836 -384.22567448 338.0988224 -388.36767578 340.60571289 C-392.34511944 343.011727 -396.346265 345.36776978 -400.375 347.6875 C-403.85755697 349.7054302 -407.23938026 351.79219165 -410.5625 354.0625 C-414.64447505 356.84030613 -418.89345598 359.17536453 -423.24609375 361.5 C-425.8777247 362.93339899 -428.44038177 364.44232424 -431 366 C-434.38984525 368.06059884 -437.81534248 370.00242651 -441.3125 371.875 C-448.79133451 375.91420176 -455.94973197 380.46544566 -463.15234375 384.97265625 C-469.66348232 389.02099086 -476.24880187 392.84457227 -482.95678711 396.55419922 C-488.34471124 399.56235354 -493.53289891 402.82483281 -498.65991211 406.25756836 C-502.79782072 409 -502.79782072 409 -505 409 C-505 409.66 -505 410.32 -505 411 C-505.71671875 411.26683594 -506.4334375 411.53367187 -507.171875 411.80859375 C-510.04463859 413.01880493 -512.58975569 414.44166252 -515.25 416.0625 C-516.12140625 416.58972656 -516.9928125 417.11695313 -517.890625 417.66015625 C-519.90445749 418.83187428 -519.90445749 418.83187428 -521 420 C-526.57987641 420.67025542 -529.80262794 418.82551593 -534.375 416 C-535.01566406 415.6184375 -535.65632812 415.236875 -536.31640625 414.84375 C-537.88462755 413.90749848 -539.44332645 412.95532843 -541 412 C-541 411.34 -541 410.68 -541 410 C-541.9075 409.71125 -542.815 409.4225 -543.75 409.125 C-546.32202908 408.23468224 -548.61346766 407.28505587 -551 406 C-551 405.34 -551 404.68 -551 404 C-551.680625 403.9175 -552.36125 403.835 -553.0625 403.75 C-555.68725985 403.07984855 -557.27804183 402.35885874 -559.5625 401 C-562.24098894 399.44160643 -564.01250213 398.47799966 -567 398 C-567 397.34 -567 396.68 -567 396 C-567.928125 395.5359375 -567.928125 395.5359375 -568.875 395.0625 C-570.25 394.375 -571.625 393.6875 -573 393 C-573 392.34 -573 391.68 -573 391 C-574.5778125 390.62875 -574.5778125 390.62875 -576.1875 390.25 C-579.86390069 389.2059022 -582.04893667 387.44722325 -585 385 C-587.61718238 383.55907936 -590.2929729 382.2628315 -593 381 C-593 380.34 -593 379.68 -593 379 C-593.81726563 378.76539063 -594.63453125 378.53078125 -595.4765625 378.2890625 C-599.73071995 376.73266343 -603.46373396 374.63830042 -607.375 372.375 C-608.11105469 371.95476562 -608.84710937 371.53453125 -609.60546875 371.1015625 C-611.4063765 370.07247236 -613.20357318 369.03689244 -615 368 C-615 367.34 -615 366.68 -615 366 C-615.94875 365.690625 -616.8975 365.38125 -617.875 365.0625 C-621 364 -621 364 -623 363 C-623 362.34 -623 361.68 -623 361 C-623.54914063 360.89429688 -624.09828125 360.78859375 -624.6640625 360.6796875 C-627.49919757 359.85474853 -629.8027679 358.57323152 -632.375 357.125 C-635.37388257 355.44786195 -638.32945856 353.84425595 -641.4375 352.375 C-644 351 -644 351 -645.9375 349 C-648.11721023 346.88634159 -650.09228154 346.06769267 -652.88671875 344.97265625 C-656.54857955 343.28725267 -659.8276582 340.98156707 -663.19921875 338.78515625 C-667.03550723 336.33999051 -670.99151638 334.14775542 -675 332 C-675 331.34 -675 330.68 -675 330 C-676.423125 329.690625 -676.423125 329.690625 -677.875 329.375 C-681.97889698 328.1861727 -685.28723629 326.18238593 -688.890625 323.921875 C-691.37995242 322.38324549 -693.88275117 320.90619924 -696.421875 319.453125 C-697.19611816 319.00775391 -697.97036133 318.56238281 -698.76806641 318.10351562 C-700.32996925 317.2065621 -701.89472963 316.3145649 -703.46240234 315.42773438 C-704.53675537 314.80608398 -704.53675537 314.80608398 -705.6328125 314.171875 C-706.28137207 313.8015918 -706.92993164 313.43130859 -707.59814453 313.04980469 C-708.06075684 312.70336914 -708.52336914 312.35693359 -709 312 C-709 311.34 -709 310.68 -709 310 C-710.485 309.690625 -710.485 309.690625 -712 309.375 C-716.10104373 308.2330427 -718.9415479 306.00781382 -722.203125 303.33984375 C-724.06811833 301.8030821 -724.06811833 301.8030821 -727 301 C-727.33 300.34 -727.66 299.68 -728 299 C-729.90863249 298.04420419 -731.85365164 297.16063719 -733.8125 296.3125 C-740.44042477 293.3284675 -747.02486205 290.17721356 -753 286 C-753 285.34 -753 284.68 -753 284 C-754.2065625 283.690625 -754.2065625 283.690625 -755.4375 283.375 C-758.56606176 282.16748494 -760.66339568 280.95639349 -763.375 279.0625 C-766.35819635 276.97931882 -769.05165048 275.47430951 -772.5 274.3125 C-773.655 273.879375 -774.81 273.44625 -776 273 C-776.33 272.01 -776.66 271.02 -777 270 C-778.31828352 269.61139035 -779.656647 269.29033015 -781 269 C-782.83544505 268.08638056 -784.6467769 267.12343368 -786.4375 266.125 C-787.36433594 265.61195313 -788.29117187 265.09890625 -789.24609375 264.5703125 C-793.22137989 262.3035536 -797.10547611 259.93732744 -800.9375 257.4375 C-804.18170771 255.3937107 -807.2809083 254.02275022 -811 253 C-811 252.01 -811 251.02 -811 250 C-811.59167969 249.80664062 -812.18335938 249.61328125 -812.79296875 249.4140625 C-816.9146645 248.05585281 -820.9950524 246.67949415 -825 245 C-825 244.34 -825 243.68 -825 243 C-825.825 242.9175 -826.65 242.835 -827.5 242.75 C-833.05757099 241.55909193 -837.7934529 239.80982065 -841 235 C-844.03097447 233.64785793 -844.03097447 233.64785793 -847.5 232.5 C-853.77777778 230.33333333 -853.77777778 230.33333333 -856 227 C-857.134375 226.54625 -858.26875 226.0925 -859.4375 225.625 C-863 224 -863 224 -864.390625 221.59375 C-866.33336443 218.46273305 -868.05008966 217.52651063 -871.3125 215.875 C-872.77042969 215.12476563 -872.77042969 215.12476563 -874.2578125 214.359375 C-875.16273438 213.91078125 -876.06765625 213.4621875 -877 213 C-877.67804688 212.65453125 -878.35609375 212.3090625 -879.0546875 211.953125 C-880.3634192 211.28936634 -881.68043441 210.64195083 -883 210 C-883 209.34 -883 208.68 -883 208 C-883.763125 207.79375 -884.52625 207.5875 -885.3125 207.375 C-892.38055712 204.73945328 -898.77579718 200.7850074 -905.125 196.75 C-908.38543314 194.73681192 -910.96927972 193.65047155 -914.75 193.0625 C-919.2827751 192.29248391 -920.78261344 190.33270379 -923.46484375 186.75390625 C-926.02888115 183.82450983 -929.32732024 182.19696648 -933 181 C-934.32 181 -935.64 181 -937 181 C-937 367.12 -937 553.24 -937 745 C-995 745 -995 745 -1002 744 C-1002 743.34 -1002 742.68 -1002 742 C-1003.258125 741.855625 -1004.51625 741.71125 -1005.8125 741.5625 C-1008.42667123 741.26251314 -1010.47439892 740.84186703 -1013 740 C-1013 739.34 -1013 738.68 -1013 738 C-1013.86625 737.9175 -1014.7325 737.835 -1015.625 737.75 C-1025.38770049 735.580511 -1033.23666177 725.73933991 -1039 718 C-1042.03096327 713.00661645 -1043.2845231 708.82602618 -1044 703 C-1044.69663652 700.83843641 -1045.46330574 698.72003812 -1046.28125 696.6015625 C-1048.37847521 689.01051908 -1048.14215565 681.0201558 -1048.12304783 673.21028805 C-1048.12420167 672.04505585 -1048.12535552 670.87982365 -1048.12654433 669.67928138 C-1048.12873067 666.45323565 -1048.12645029 663.22722918 -1048.12226619 660.00118658 C-1048.11882042 656.48846735 -1048.12120499 652.97575122 -1048.12284368 649.46303135 C-1048.12491447 643.30947361 -1048.12327867 637.15592554 -1048.11920547 631.00236893 C-1048.11316564 621.85228305 -1048.11287012 612.70220326 -1048.11374746 603.55211574 C-1048.11506086 588.15954807 -1048.11172185 572.76698469 -1048.10573006 557.37441826 C-1048.09981276 542.13414934 -1048.09596405 526.8938822 -1048.09487724 511.65361214 C-1048.0948085 510.7059696 -1048.09473976 509.75832706 -1048.09466894 508.78196807 C-1048.09433061 503.96935798 -1048.09402922 499.15674789 -1048.09374207 494.3441378 C-1048.09164173 460.25766291 -1048.08490459 426.17119036 -1048.07543945 392.0847168 C-1048.0662549 358.97045911 -1048.05917134 325.85620206 -1048.05493164 292.74194336 C-1048.05480011 291.72119285 -1048.05466859 290.70044234 -1048.05453308 289.64876 C-1048.05321455 279.39795104 -1048.05193874 269.14714207 -1048.05069422 258.89633309 C-1048.04815801 238.01430849 -1048.04533676 217.13228394 -1048.04234314 196.2502594 C-1048.04220585 195.29014059 -1048.04206856 194.33002177 -1048.04192711 193.34080845 C-1048.03272666 129.22720466 -1048.01688148 65.11360217 -1048 1 C-1043.33932001 1.80092215 -1039.74580942 3.58458359 -1035.6875 5.9375 C-1034.99180908 6.33501465 -1034.29611816 6.7325293 -1033.5793457 7.14208984 C-1025.92396793 11.55418826 -1018.4509597 16.2534778 -1011 21 C-1009.989375 21.64066406 -1008.97875 22.28132813 -1007.9375 22.94140625 C-1006.57625 23.80572266 -1006.57625 23.80572266 -1005.1875 24.6875 C-1004.32382812 25.23535156 -1003.46015625 25.78320312 -1002.5703125 26.34765625 C-1000.80350627 27.48346026 -999.04881315 28.63826016 -997.3046875 29.80859375 C-991.66709877 33.54289397 -986.10820549 36.38984282 -979.81640625 38.8671875 C-976.08735763 40.36708223 -972.56550501 42.14868009 -969 44 C-969 44.66 -969 45.32 -969 46 C-968.13632812 46.28101563 -967.27265625 46.56203125 -966.3828125 46.8515625 C-963.17109393 47.94191499 -960.02224474 49.11127257 -956.875 50.375 C-955.86179687 50.77460938 -954.84859375 51.17421875 -953.8046875 51.5859375 C-950.89272041 53.05408804 -949.2199302 54.64781864 -947 57 C-945.03120677 58.06011943 -943.03564133 59.07470849 -941 60 C-941 60.66 -941 61.32 -941 62 C-940.319375 62.268125 -939.63875 62.53625 -938.9375 62.8125 C-937.968125 63.204375 -936.99875 63.59625 -936 64 C-935.38769531 64.24105469 -934.77539062 64.48210937 -934.14453125 64.73046875 C-929.11287193 66.77425614 -929.11287193 66.77425614 -928 69 C-926.54422893 69.6205408 -925.05858771 70.17168817 -923.5625 70.6875 C-918.52170147 72.59853235 -914.59316455 75.26733779 -910.2734375 78.44921875 C-907.63971405 80.24576207 -905.09965436 81.26587134 -902 82 C-902 82.99 -902 83.98 -902 85 C-901.113125 85.268125 -900.22625 85.53625 -899.3125 85.8125 C-896.2090334 86.9250635 -893.68889315 88.10195778 -891 90 C-891 90.66 -891 91.32 -891 92 C-890.34 92.0825 -889.68 92.165 -889 92.25 C-885.00960837 93.24759791 -881.61450357 95.07166683 -878 97 C-878 97.66 -878 98.32 -878 99 C-877.34 99 -876.68 99 -876 99 C-876 99.66 -876 100.32 -876 101 C-874.88625 101.185625 -874.88625 101.185625 -873.75 101.375 C-871.19858515 101.95486701 -869.2732427 102.73708739 -867 104 C-867 104.99 -867 105.98 -867 107 C-865.7625 106.938125 -864.525 106.87625 -863.25 106.8125 C-860.30742414 106.80728267 -859.14353673 106.9210548 -856.5 108.375 C-855 110 -855 110 -855 112 C-854.16984375 112.23203125 -853.3396875 112.4640625 -852.484375 112.703125 C-848.34418057 114.24409423 -844.94223924 116.3570372 -841.25 118.75 C-839.81678812 119.66205869 -838.3831958 120.57351982 -836.94921875 121.484375 C-835.92127197 122.14083008 -835.92127197 122.14083008 -834.87255859 122.81054688 C-830.96572121 125.29217813 -826.98361053 127.64452243 -823 130 C-821.57291556 130.85025856 -820.14583234 131.70051917 -818.71875 132.55078125 C-817.16683768 133.47164243 -815.61475322 134.39221357 -814.0625 135.3125 C-813.31556885 135.75787109 -812.5686377 136.20324219 -811.79907227 136.66210938 C-811.09322998 137.07912109 -810.3873877 137.49613281 -809.66015625 137.92578125 C-809.02730713 138.30130127 -808.39445801 138.67682129 -807.74243164 139.0637207 C-805.8484913 140.14521656 -805.8484913 140.14521656 -803 141 C-803 141.66 -803 142.32 -803 143 C-800.03 143.99 -800.03 143.99 -797 145 C-797 145.66 -797 146.32 -797 147 C-796.195625 147.061875 -795.39125 147.12375 -794.5625 147.1875 C-788.47549908 148.57576337 -783.35245905 151.55081963 -779 156 C-775.01039368 158.30510587 -771.57139423 159.4557864 -767 160 C-767 160.66 -767 161.32 -767 162 C-766.236875 161.938125 -765.47375 161.87625 -764.6875 161.8125 C-762 162 -762 162 -760.25 163.3125 C-759 165 -759 165 -758 168 C-756.26040699 168.75491772 -754.51725886 169.50374302 -752.75 170.19140625 C-751 171 -751 171 -749.1875 172.875 C-746.39196704 175.59066059 -743.37335771 176.89146337 -739.8828125 178.57421875 C-736.65813945 180.16907737 -733.51192326 181.86372512 -730.375 183.625 C-729.35148437 184.19476563 -728.32796875 184.76453125 -727.2734375 185.3515625 C-726.52320313 185.89554688 -725.77296875 186.43953125 -725 187 C-725 187.99 -725 188.98 -725 190 C-724.41863281 190.27972656 -723.83726562 190.55945313 -723.23828125 190.84765625 C-721.12289553 191.93672918 -719.17750499 193.13649877 -717.1875 194.4375 C-714.57928819 196.09682878 -712.05662122 197.47613578 -709.1875 198.625 C-706.23686277 199.8978239 -705.12949679 200.7737079 -703 203 C-701.34561387 203.69658363 -699.67745682 204.36096883 -698 205 C-695.1875 206.5 -695.1875 206.5 -693 208 C-693 208.66 -693 209.32 -693 210 C-692.46761719 210.08636719 -691.93523437 210.17273438 -691.38671875 210.26171875 C-688.15020769 211.26286538 -685.65827733 212.9799146 -682.8125 214.8125 C-678.22825801 217.72656451 -673.67631525 220.23224186 -668.609375 222.2109375 C-667 223 -667 223 -666 225 C-664.30195889 226.01246063 -662.56584413 226.96165204 -660.8125 227.875 C-657.67322323 229.53768396 -654.74540821 231.17471986 -651.8125 233.1875 C-649.35909532 234.76858302 -647.47310933 235.58904929 -644.75 236.5 C-642.671875 237.21484375 -642.671875 237.21484375 -641 238 C-640.67 238.680625 -640.34 239.36125 -640 240.0625 C-639.18713117 242.17094896 -639.18713117 242.17094896 -637.1171875 242.69921875 C-635.09271908 243.19651848 -633.04667061 243.6038702 -631 244 C-631 244.66 -631 245.32 -631 246 C-630.360625 246.268125 -629.72125 246.53625 -629.0625 246.8125 C-627 248 -627 248 -626 251 C-625.0925 251.020625 -624.185 251.04125 -623.25 251.0625 C-618.19551442 251.75221596 -614.23303597 254.57486609 -609.96484375 257.2109375 C-607.04198986 258.97466224 -604.07103017 260.51239846 -601 262 C-601 262.66 -601 263.32 -601 264 C-599.7934375 264.3403125 -599.7934375 264.3403125 -598.5625 264.6875 C-593.24596191 266.64622456 -588.5279727 269.53994976 -583.6328125 272.3671875 C-579.49572651 274.72128694 -575.61518638 276.69828076 -571 278 C-571 278.66 -571 279.32 -571 280 C-570.236875 280.12375 -569.47375 280.2475 -568.6875 280.375 C-566 281 -566 281 -563 283 C-563 283.66 -563 284.32 -563 285 C-562.42024414 285.12689209 -561.84048828 285.25378418 -561.24316406 285.38452148 C-559.01286525 285.99647004 -557.16780336 286.80184184 -555.109375 287.84765625 C-554.40039062 288.20537109 -553.69140625 288.56308594 -552.9609375 288.93164062 C-551.86652344 289.49141602 -551.86652344 289.49141602 -550.75 290.0625 C-550.00492188 290.43955078 -549.25984375 290.81660156 -548.4921875 291.20507812 C-546.65962469 292.13310673 -544.82956324 293.06607179 -543 294 C-543 295.32 -543 296.64 -543 298 C-542.319375 298.268125 -541.63875 298.53625 -540.9375 298.8125 C-537.60289191 300.16053306 -534.30256763 301.57536298 -531 303 C-531 303.66 -531 304.32 -531 305 C-524.14025442 305.57164547 -519.87319087 304.47205909 -514 301 C-512.88431641 300.40445313 -512.88431641 300.40445313 -511.74609375 299.796875 C-508.07458363 297.83376637 -504.60222487 295.78485674 -501.25 293.3125 C-498.41433664 291.29481646 -496.1742669 290.26970676 -493 289 C-491.36152379 287.7875276 -489.72348683 286.57444532 -488.08984375 285.35546875 C-485.63549904 283.76358536 -483.12386218 282.65546379 -480.4375 281.5 C-477.19230712 280.08962326 -474.4551457 278.79855231 -471.8125 276.4375 C-468.97049828 273.97443184 -466.3989845 272.60359191 -463.0390625 271.01171875 C-461.09714956 270.04820256 -459.32022358 268.98722579 -457.5 267.8125 C-453.42698065 265.20221181 -449.22371195 262.85449269 -445 260.5 C-440.25901128 257.85382912 -435.56761227 255.18228805 -430.99609375 252.25 C-427.33118464 249.95494929 -423.57338126 247.81577263 -419.83203125 245.6484375 C-417.97346291 244.56662255 -416.13599373 243.44754051 -414.32421875 242.2890625 C-412 241 -412 241 -409 241 C-409 240.34 -409 239.68 -409 239 C-407.02 238.505 -407.02 238.505 -405 238 C-405 237.34 -405 236.68 -405 236 C-402.29120665 234.64560332 -399.99066732 234.93498549 -397 235 C-396.74476563 234.38721191 -396.48953125 233.77442383 -396.2265625 233.14306641 C-394.83196194 230.70640165 -393.82573196 230.01136325 -391.375 228.7109375 C-390.66859375 228.32679688 -389.9621875 227.94265625 -389.234375 227.546875 C-388.49703125 227.16015625 -387.7596875 226.7734375 -387 226.375 C-385.54012621 225.59401857 -384.08172288 224.81028051 -382.625 224.0234375 C-381.65433594 223.51176025 -381.65433594 223.51176025 -380.6640625 222.98974609 C-378.82302158 221.98720037 -378.82302158 221.98720037 -377 220 C-375.31214018 219.3049989 -373.62398961 218.61068495 -371.93359375 217.921875 C-369.2406084 216.63794663 -366.99354377 214.89867091 -364.609375 213.12109375 C-362.52850264 211.67155402 -360.36730292 210.90182969 -358 210 C-353.77183418 207.81111713 -349.70042447 205.47143955 -345.75 202.8125 C-342.29876753 200.53782406 -338.89861241 199.29953747 -335 198 C-335 197.34 -335 196.68 -335 196 C-332.98828125 194.5625 -332.98828125 194.5625 -330.3125 193 C-329.44238281 192.484375 -328.57226562 191.96875 -327.67578125 191.4375 C-325 190 -325 190 -322.33203125 188.953125 C-319.69413162 187.87498847 -317.97629917 186.27440669 -315.84765625 184.41796875 C-311.91679256 181.4012594 -307.37790164 179.29069488 -303 177 C-295.48665345 173.09647646 -295.48665345 173.09647646 -288.4375 168.4375 C-284.95706974 165.82927395 -281.19544845 164.01032889 -277.28515625 162.12890625 C-274.88557024 160.99163777 -274.88557024 160.99163777 -272.3125 159.3125 C-269.33482028 157.62246556 -266.30497167 156.84244376 -263 156 C-263 155.34 -263 154.68 -263 154 C-260.55078125 152.34375 -260.55078125 152.34375 -257.3125 150.5 C-256.25675781 149.8915625 -255.20101562 149.283125 -254.11328125 148.65625 C-251 147 -251 147 -248.40625 145.98828125 C-245.67940971 144.86832899 -243.5680181 143.42193241 -241.1875 141.6875 C-230.2539267 133.87780479 -230.2539267 133.87780479 -225.703125 132.10546875 C-222.32312596 130.72318591 -219.21563395 128.95103452 -216.0625 127.125 C-215.46759766 126.78597656 -214.87269531 126.44695312 -214.25976562 126.09765625 C-210.39906475 123.87828067 -206.69739624 121.48505271 -203 119 C-201.33938193 117.98998743 -199.67256791 116.99009816 -198 116 C-195.85212463 114.69084442 -193.70641036 113.37813875 -191.5625 112.0625 C-190.47066406 111.39347656 -189.37882812 110.72445312 -188.25390625 110.03515625 C-186.05812201 108.6618026 -183.88493666 107.25173381 -181.734375 105.80859375 C-179.14409867 104.09531097 -176.89722209 103.07803612 -174 102 C-172.41138296 101.34602386 -170.82840942 100.67824228 -169.25 100 C-168.08210938 99.505 -168.08210938 99.505 -166.890625 99 C-164.82998218 98.14458704 -164.82998218 98.14458704 -164 96 C-162.4141212 95.0691581 -160.82288713 94.1466462 -159.2109375 93.26171875 C-156.6603149 91.80615143 -154.21335706 90.22371167 -151.75 88.625 C-147.19513266 85.70042671 -142.54275631 83.09005451 -137.76953125 80.54296875 C-133.88223574 78.37726815 -130.17814642 75.95226312 -126.44140625 73.5390625 C-122.82625931 71.26007387 -119.18009264 69.44581278 -115.1875 67.9375 C-112.83484431 67.20797383 -112.83484431 67.20797383 -112 65 C-110.33850143 64.32055557 -108.67092458 63.65592168 -107 63 C-104.63773898 61.48532765 -102.37012441 59.87152219 -100.0859375 58.2421875 C-98 57 -98 57 -95 57 C-95 56.34 -95 55.68 -95 55 C-93.56640625 53.88671875 -93.56640625 53.88671875 -91.5625 52.6875 C-90.47775391 52.03394531 -90.47775391 52.03394531 -89.37109375 51.3671875 C-86.23783926 49.56053335 -83.07205268 47.81902469 -79.8828125 46.11328125 C-77.85200078 45.01784764 -77.85200078 45.01784764 -76 43 C-74.34830378 42.39495156 -72.67827813 41.83934583 -71 41.3125 C-65.81541394 39.49417712 -61.84950335 37.04319461 -57.45703125 33.78515625 C-55.07758522 32.05636955 -52.66214471 30.54755918 -50.125 29.0625 C-46.36434035 26.85311245 -42.73673785 24.5079475 -39.125 22.0625 C-31.6756263 17.05162475 -23.94872568 12.59508613 -16.0625 8.3125 C-12.74891154 6.49421319 -9.91559509 4.41577879 -7 2 C-4.26466879 0.39098164 -3.24114485 0 0 0 Z " fill="#F99313" transform="translate(1231,303)"/>
<path d="M0 0 C5.92010465 0.03759087 11.84010827 0.03526896 17.76031239 0.03455058 C29.47778181 0.03473559 41.19469023 0.07761804 52.91194582 0.14559007 C64.24438611 0.21128921 75.57638252 0.24653243 86.90901613 0.24812913 C87.95943057 0.24828348 87.95943057 0.24828348 89.03106551 0.24844094 C89.73021994 0.24853921 90.42937437 0.24863747 91.1497153 0.24873871 C104.78007126 0.25082358 118.41020989 0.28373235 132.04049397 0.32675219 C135.9476645 0.3372106 139.85481186 0.34228998 143.76199389 0.34626412 C149.90361381 0.3542007 156.04481267 0.382834 162.18627405 0.42720056 C164.43235573 0.44042282 166.67848822 0.44701805 168.92460871 0.44632554 C190.2131565 0.44825318 190.2131565 0.44825318 200.49788332 5.04427171 C201.85811052 5.52805306 203.22239853 6.00066783 204.59163332 6.45833421 C205.71569582 6.85794358 206.83975832 7.25755296 207.99788332 7.66927171 C209.14257082 8.07403733 210.28725832 8.47880296 211.46663332 8.89583421 C217.11045051 11.03408453 221.79372393 13.53570825 224.56038332 19.23177171 C225.36736631 21.23521472 225.36736631 21.23521472 227.56038332 22.04427171 C229.49788332 23.04427171 229.49788332 23.04427171 230.24788332 25.16927171 C230.37163332 26.09739671 230.37163332 26.09739671 230.49788332 27.04427171 C231.15788332 27.04427171 231.81788332 27.04427171 232.49788332 27.04427171 C232.49788332 27.70427171 232.49788332 28.36427171 232.49788332 29.04427171 C233.15788332 29.04427171 233.81788332 29.04427171 234.49788332 29.04427171 C235.99609391 32.41524554 236.49788332 34.2486929 236.49788332 38.04427171 C237.15788332 38.04427171 237.81788332 38.04427171 238.49788332 38.04427171 C241.12009883 52.16927256 243.67270604 66.13661429 243.54866457 80.54817796 C243.5449988 81.37031785 243.54133303 82.19245774 243.53755617 83.03951097 C243.52809746 85.04111922 243.51352998 87.04270226 243.49788332 89.04427171 C244.11232898 89.04275283 244.72677463 89.04123394 245.35983986 89.03966904 C281.78504225 88.9501371 318.21022836 88.88151556 354.63551828 88.84001039 C359.01013168 88.83500762 363.38474486 88.82983033 367.75935793 88.82454515 C368.63025665 88.8234959 369.50115537 88.82244666 370.39844496 88.82136562 C384.49589375 88.80396519 398.59327723 88.77242948 412.69068729 88.73566052 C427.15827544 88.69824106 441.6258294 88.67603373 456.09346396 88.66791773 C465.01922441 88.66243204 473.94480024 88.64511229 482.87050385 88.61260584 C488.99300635 88.59144554 495.11541355 88.58507509 501.23794996 88.5902662 C504.76923117 88.59282564 508.30019 88.58893025 511.83141375 88.56744981 C515.66444208 88.54430442 519.49705295 88.55233747 523.33014345 88.56325364 C524.44008478 88.55160228 525.55002611 88.53995091 526.69360203 88.52794647 C532.72114301 88.57432446 537.22413464 89.29189628 542.60290152 92.08242273 C545.43209717 93.51845707 548.44895052 94.19734593 551.49788332 95.04427171 C553.84936852 96.00080806 556.1853432 96.99708373 558.49788332 98.04427171 C559.21975832 98.35364671 559.94163332 98.66302171 560.68538332 98.98177171 C563.0361426 100.35980301 564.70839226 101.99913906 566.49788332 104.04427171 C566.49788332 104.70427171 566.49788332 105.36427171 566.49788332 106.04427171 C567.15788332 106.04427171 567.81788332 106.04427171 568.49788332 106.04427171 C575.97546154 113.10752501 581.77616021 122.24338279 586.45491457 131.32942796 C587.39233941 133.2130819 587.39233941 133.2130819 589.49788332 134.04427171 C590.09553957 136.04036546 590.09553957 136.04036546 590.56038332 138.48177171 C591.21231342 141.86901218 591.21231342 141.86901218 592.49788332 145.04427171 C592.59268767 146.63903742 592.62385619 148.23776438 592.62438315 149.83534545 C592.6271429 150.85536415 592.62990264 151.87538286 592.63274601 152.92631122 C592.63069069 154.05768057 592.62863537 155.18904992 592.62651777 156.35470319 C592.62914733 158.15240195 592.62914733 158.15240195 592.63183001 159.98641786 C592.63570315 163.33833003 592.63505025 166.69018788 592.63255224 170.04209787 C592.63092636 173.67913108 592.63505395 177.31615833 592.63846141 180.95318967 C592.64362849 187.33595335 592.64503036 193.71870944 592.6440053 200.101475 C592.64248473 209.59266317 592.6466324 219.0838429 592.65187992 228.57502943 C592.66156809 246.50949526 592.66436471 264.44395823 592.66493698 282.37842637 C592.6653959 296.22370256 592.66745094 310.06897764 592.67063761 323.91425347 C592.6715351 327.89443662 592.67242491 331.87461976 592.67331249 335.85480291 C592.67353353 336.84418501 592.67375458 337.83356711 592.67398233 338.85293048 C592.68013942 366.69510707 592.6840826 394.53728327 592.68363905 422.37946057 C592.68362347 423.42990081 592.68360789 424.48034105 592.68359184 425.56261281 C592.68350873 430.8871207 592.68340969 436.2116286 592.68330713 441.5361365 C592.68327722 443.12244043 592.68327722 443.12244043 592.68324669 444.7407909 C592.68320626 446.87938722 592.68316446 449.01798354 592.6831213 451.15657986 C592.68250833 484.44116966 592.69001786 517.72574927 592.70369387 551.01033616 C592.71903911 588.37321911 592.72766104 625.73609537 592.72673064 663.09898168 C592.72665601 667.07947918 592.72660731 671.05997668 592.72657633 675.04047418 C592.72656467 676.0206326 592.72655302 677.00079102 592.72654101 678.01065121 C592.72651018 693.81525618 592.73290844 709.61985235 592.74150859 725.4244547 C592.74996649 741.29536576 592.7509897 757.16626388 592.74439927 773.03717595 C592.74069119 782.47693415 592.74257329 791.91665314 592.75234161 801.35640723 C592.7583087 807.65244343 592.75708291 813.948451 592.74987111 820.24448584 C592.74596171 823.83802066 592.7452932 827.43147919 592.75332846 831.02500885 C592.76188682 834.88604369 592.75516187 838.74696173 592.74677229 842.60799909 C592.75174047 843.73702727 592.75670865 844.86605545 592.76182738 846.02929661 C592.75470116 847.56307994 592.75470116 847.56307994 592.74743098 849.1278488 C592.7475192 850.01165548 592.74760742 850.89546216 592.74769832 851.80605086 C592.49788332 854.04427171 592.49788332 854.04427171 590.49788332 857.04427171 C590.10400544 859.36815117 589.76302247 861.7022092 589.49788332 864.04427171 C588.83788332 864.04427171 588.17788332 864.04427171 587.49788332 864.04427171 C587.16788332 866.02427171 586.83788332 868.00427171 586.49788332 870.04427171 C585.50788332 870.04427171 584.51788332 870.04427171 583.49788332 870.04427171 C583.43600832 870.80739671 583.37413332 871.57052171 583.31038332 872.35677171 C582.22146293 875.95858532 580.68984468 876.12909489 577.49788332 878.04427171 C576.45664851 879.3669952 575.45956572 880.72512981 574.49788332 882.10677171 C572.18365701 885.37426741 570.5382315 887.09360155 566.49788332 888.04427171 C566.49788332 888.70427171 566.49788332 889.36427171 566.49788332 890.04427171 C563.99034863 893.58432068 560.51013195 893.9374445 556.49788332 895.04427171 C554.81758338 896.02119028 553.14859728 897.01815222 551.49788332 898.04427171 C547.6396179 899.50775169 543.56581714 899.1120706 539.49788332 899.04427171 C539.49788332 899.70427171 539.49788332 900.36427171 539.49788332 901.04427171 C449.07243406 901.12996876 358.64697977 901.20947197 268.22150087 901.25598741 C266.86966912 901.25668466 265.51783737 901.25738192 264.16600562 901.25807918 C235.78923857 901.27269334 207.4124711 901.28627684 179.035703 901.2986701 C164.78061563 901.30489696 150.52552837 901.31132182 136.27044118 901.31793392 C134.12014654 901.31893016 131.96985191 901.31992075 129.81955727 901.32091111 C96.71724926 901.33620678 63.61495044 901.35574281 30.51265383 901.38759446 C29.44547088 901.3886212 29.44547088 901.3886212 28.35672868 901.38966869 C16.88633235 901.40073022 5.41593638 901.41214839 -6.05445954 901.42361391 C-39.10220283 901.45664216 -72.14993902 901.48702304 -105.19769716 901.49997067 C-105.87763997 901.50023835 -106.55758278 901.50050603 -107.25812991 901.50078181 C-122.18636848 901.50661133 -137.11460713 901.51108527 -152.04284649 901.51427662 C-158.04993605 901.51558469 -164.05702555 901.51709054 -170.06411505 901.51865792 C-172.03545992 901.5191636 -172.03545992 901.5191636 -174.04662994 901.51967948 C-195.20257994 901.5255882 -216.35847739 901.54877884 -237.51440596 901.57843188 C-258.78296969 901.60787399 -280.05148132 901.61911012 -301.32006472 901.61177859 C-313.95629983 901.60797558 -326.5923443 901.61811548 -339.22854499 901.64825942 C-347.67319142 901.66702796 -356.11771321 901.66757659 -364.56236829 901.65343078 C-369.37173323 901.64589253 -374.18073798 901.64616168 -378.99006408 901.66868762 C-383.37398099 901.68906435 -387.75725989 901.68598516 -392.14116808 901.66497159 C-393.70899492 901.66142941 -395.27687003 901.66609187 -396.84463514 901.68044793 C-405.26752158 901.75262448 -412.87140555 901.02552381 -420.99861246 898.69331926 C-421.73586721 898.48276262 -422.47312196 898.27220598 -423.23271775 898.05526883 C-425.28139556 897.40936096 -425.28139556 897.40936096 -428.50211668 896.04427171 C-428.83211668 895.05427171 -429.16211668 894.06427171 -429.50211668 893.04427171 C-430.18274168 892.96177171 -430.86336668 892.87927171 -431.56461668 892.79427171 C-435.28752758 891.84374127 -438.49245921 890.42628705 -441.50211668 888.04427171 C-442.53644572 886.06180772 -443.5345006 884.06013855 -444.50211668 882.04427171 C-446.09942001 880.56445542 -446.09942001 880.56445542 -447.93961668 879.16927171 C-451.85088791 876.01715017 -453.65532144 872.65657251 -455.50211668 868.04427171 C-456.05899168 866.68302171 -456.05899168 866.68302171 -456.62711668 865.29427171 C-457.75019839 861.12282536 -458.39474499 856.92300589 -459.03727293 852.65364671 C-459.36992456 850.07247675 -459.36992456 850.07247675 -460.50211668 848.04427171 C-460.59647566 846.47012535 -460.62734326 844.89198882 -460.62746584 843.31501693 C-460.63122112 841.80572145 -460.63122112 841.80572145 -460.63505226 840.26593515 C-460.6327111 839.15003756 -460.63036993 838.03413998 -460.62795782 836.88442731 C-460.62941126 835.70224601 -460.6308647 834.52006471 -460.63236219 833.30205974 C-460.63540053 829.99583147 -460.63391284 826.68965936 -460.63058423 823.38343489 C-460.62806087 819.79595551 -460.63130212 816.20848076 -460.63382757 812.62100202 C-460.63745036 806.32530064 -460.6373229 800.02960782 -460.63478041 793.73390603 C-460.63100996 784.37228712 -460.63292537 775.01067547 -460.63598871 765.64905661 C-460.64126465 748.93298697 -460.64079403 732.21692114 -460.6379098 715.50085114 C-460.6353982 700.87331134 -460.6347357 686.24577294 -460.63593245 671.61823297 C-460.63600883 670.64945917 -460.63608522 669.68068538 -460.63616392 668.6825548 C-460.63647523 664.7503925 -460.63679363 660.81823021 -460.63712368 656.88606791 C-460.64018534 619.9704 -460.63740495 583.05473453 -460.63202678 546.139067 C-460.62728051 513.31099917 -460.62770581 480.48293521 -460.63248777 447.65486741 C-460.6378373 410.8069294 -460.63996862 373.95899354 -460.63687551 337.1110552 C-460.63655477 333.18620169 -460.63624193 329.26134819 -460.63593245 325.33649468 C-460.63585337 324.37003292 -460.63577429 323.40357116 -460.63569282 322.40782268 C-460.63455327 307.7854883 -460.63588946 293.16315548 -460.638412 278.54082131 C-460.64126449 261.92256676 -460.64057092 245.30431663 -460.63513125 228.68606263 C-460.63218429 219.37475858 -460.63201861 210.06346411 -460.63577743 200.7521603 C-460.63800799 194.54430039 -460.63664583 188.33644821 -460.63227266 182.12858945 C-460.62987785 178.58379306 -460.62911344 175.03901578 -460.63267864 171.49421995 C-460.63646714 167.68889456 -460.63264206 163.88359992 -460.62795782 160.07827497 C-460.63029899 158.96003621 -460.63264015 157.84179746 -460.63505226 156.68967268 C-460.63254875 155.68597921 -460.63004523 154.68228575 -460.62746584 153.64817733 C-460.62739809 152.77653713 -460.62733033 151.90489694 -460.62726051 151.00684341 C-460.50211668 149.04427171 -460.50211668 149.04427171 -459.50211668 148.04427171 C-459.34224686 146.3597175 -459.22471073 144.67107827 -459.12711668 142.98177171 C-458.5724052 136.31656653 -457.43080017 130.83032197 -452.50211668 126.04427171 C-451.73739224 124.94891785 -451.0069916 123.82888895 -450.31071043 122.68880296 C-449.92334715 122.0668303 -449.53598387 121.44485765 -449.13688231 120.80403733 C-448.33240366 119.49561122 -447.53035495 118.18568826 -446.73063231 116.87434983 C-445.70471054 115.23184738 -444.6085805 113.63363245 -443.50211668 112.04427171 C-442.84211668 112.04427171 -442.18211668 112.04427171 -441.50211668 112.04427171 C-441.44024168 111.44614671 -441.37836668 110.84802171 -441.31461668 110.23177171 C-440.17109085 107.15304833 -438.3171239 106.6619999 -435.50211668 105.04427171 C-433.91118079 103.90901779 -432.32795006 102.76289783 -430.75211668 101.60677171 C-426.73437266 98.7515833 -422.80483558 96.65042439 -418.21696043 94.86849046 C-416.30803665 94.16645656 -416.30803665 94.16645656 -415.50211668 92.04427171 C-407.95063359 88.992374 -400.35866246 88.61852521 -392.32165098 88.68350816 C-390.55570901 88.67966325 -390.55570901 88.67966325 -388.75409144 88.67574066 C-385.51795694 88.67168151 -382.28219083 88.68094994 -379.04609978 88.69607484 C-375.54455702 88.7091127 -372.04302933 88.70464031 -368.5414691 88.70236802 C-362.48528944 88.70080015 -356.42920726 88.71015824 -350.37305212 88.72708154 C-341.61704293 88.75153328 -332.86108056 88.7592831 -324.10504093 88.76304551 C-309.89663391 88.76960034 -295.68827876 88.78953513 -281.47989988 88.81795335 C-267.68335303 88.84551905 -253.8868203 88.86674032 -240.09025145 88.87947679 C-239.23886067 88.88026496 -238.38746989 88.88105313 -237.51027939 88.88186518 C-233.23881208 88.88578049 -228.96734467 88.88957156 -224.69587719 88.89330089 C-189.29792006 88.92436662 -153.90002317 88.97717594 -118.50211668 89.04427171 C-117.2822792 91.48394668 -117.38160141 93.04331695 -117.38859129 95.76936936 C-117.38866682 96.75023515 -117.38874235 97.73110093 -117.38882017 98.74168992 C-117.39398146 99.80318254 -117.39914274 100.86467515 -117.40446043 101.95833421 C-117.40658285 103.58549867 -117.40658285 103.58549867 -117.40874815 105.24553514 C-117.41435866 108.72014171 -117.42691296 112.19468452 -117.43961668 115.66927171 C-117.44463033 118.02083328 -117.44919347 120.37239586 -117.45328856 122.72395921 C-117.4643315 128.49741857 -117.48107989 134.27084058 -117.50211668 140.04427171 C-120.54759472 141.80341781 -122.73769876 142.29483406 -126.2410903 142.2976048 C-127.19632129 142.3032202 -128.15155228 142.30883559 -129.13572967 142.31462115 C-130.18221447 142.31064006 -131.22869927 142.30665896 -132.30689573 142.30255723 C-133.42088983 142.30623293 -134.53488393 142.30990864 -135.68263543 142.31369573 C-139.42898647 142.32370475 -143.17518993 142.31951911 -146.92155027 142.31551194 C-149.60203227 142.31989731 -152.28250083 142.32508807 -154.96297789 142.33135056 C-160.74203455 142.34339898 -166.52106364 142.34850368 -172.30013227 142.34923196 C-180.66224928 142.35055721 -189.0242993 142.36566547 -197.38639267 142.38472713 C-210.96174291 142.41557529 -224.53709485 142.43973764 -238.11246824 142.45760179 C-238.92507021 142.45867447 -239.73767217 142.45974715 -240.57489844 142.46085233 C-249.64021563 142.47267156 -258.70553349 142.48287691 -267.77085447 142.49129319 C-271.05757731 142.49436707 -274.34430013 142.49745587 -277.63102293 142.50057054 C-278.44202941 142.50133587 -279.25303589 142.50210121 -280.08861832 142.50288974 C-293.61053042 142.51597041 -307.13239407 142.54060881 -320.65427029 142.57431394 C-328.99523551 142.59460708 -337.33609711 142.6048929 -345.6770872 142.60232473 C-351.39259971 142.60128979 -357.10803029 142.61092448 -362.82351421 142.62896376 C-366.12148705 142.6390101 -369.41924169 142.64249917 -372.71722937 142.63619637 C-376.29279596 142.63007861 -379.86784856 142.64224477 -383.44337034 142.65900254 C-384.4853937 142.65279073 -385.52741706 142.64657891 -386.60101688 142.64017886 C-394.5661032 142.70837427 -399.48019334 144.69145096 -405.50211668 150.04427171 C-409.79331687 156.48107199 -409.74380115 163.86039477 -409.87711668 171.35677171 C-409.90305906 172.14575852 -409.92900145 172.93474534 -409.95572996 173.74764085 C-409.97543869 178.4822068 -409.97543869 178.4822068 -407.61930418 182.50911546 C-405.63723372 183.94629939 -403.75067762 185.08060273 -401.50211668 186.04427171 C-401.50211668 186.70427171 -401.50211668 187.36427171 -401.50211668 188.04427171 C-400.18211668 188.37427171 -398.86211668 188.70427171 -397.50211668 189.04427171 C-397.50211668 189.70427171 -397.50211668 190.36427171 -397.50211668 191.04427171 C-395.52211668 191.37427171 -393.54211668 191.70427171 -391.50211668 192.04427171 C-391.50211668 192.70427171 -391.50211668 193.36427171 -391.50211668 194.04427171 C-397.87702138 192.68790901 -402.20450987 189.73888098 -407.50211668 186.04427171 C-410.03857407 184.39683842 -412.59431236 182.78191838 -415.15055418 181.16536546 C-417.78540154 179.49785716 -420.4144701 177.82217759 -423.04117918 176.14192796 C-430.69009569 171.2627484 -438.29822347 166.43909725 -446.33805418 162.22005296 C-448.29956829 161.15432056 -450.11009128 160.00703202 -451.93961668 158.73177171 C-454.30068136 157.17692424 -455.80514394 156.62260344 -458.50211668 156.04427171 C-458.44099947 221.05712586 -458.37742462 286.06997747 -458.30079222 351.08281541 C-458.29965859 352.04514309 -458.29852497 353.00747077 -458.29735699 353.99895989 C-458.27270511 374.91331713 -458.24761222 395.82767381 -458.22206507 416.74202997 C-458.2095393 426.99853884 -458.19711098 437.25504782 -458.18473387 447.51155686 C-458.18288388 449.04251953 -458.18288388 449.04251953 -458.18099652 450.60441073 C-458.1410721 483.68178715 -458.10758138 516.75916628 -458.07742977 549.83655293 C-458.0464091 583.83002999 -458.00889228 617.82349384 -457.96321056 651.81695451 C-457.95676023 656.61913547 -457.95038411 661.42131652 -457.94405317 666.22349763 C-457.94280487 667.16862864 -457.94155656 668.11375964 -457.94027043 669.08753098 C-457.92037316 684.29683356 -457.90731665 699.50613467 -457.8968234 714.71544632 C-457.88612602 730.00877372 -457.86820964 745.30207922 -457.84294964 760.59538962 C-457.82816401 769.67955349 -457.81888825 778.76368382 -457.81754985 787.84785983 C-457.81610897 793.92099111 -457.80743478 799.99408467 -457.79296076 806.0671988 C-457.78492582 809.52442321 -457.77995826 812.98157359 -457.78383787 816.43880691 C-458.75968647 837.79427523 -458.75968647 837.79427523 -453.50211668 858.04427171 C-453.39899168 859.09614671 -453.29586668 860.14802171 -453.18961668 861.23177171 C-451.7249008 869.35428703 -446.99796235 874.9050503 -441.56461668 880.85677171 C-441.06276854 881.40800706 -440.56092039 881.95924241 -440.04386473 882.52718186 C-435.22801858 887.63879947 -430.33577175 891.09179883 -423.50211668 893.04427171 C-423.50211668 893.70427171 -423.50211668 894.36427171 -423.50211668 895.04427171 C-419.87211668 895.70427171 -416.24211668 896.36427171 -412.50211668 897.04427171 C-412.50211668 897.70427171 -412.50211668 898.36427171 -412.50211668 899.04427171 C-391.05211668 899.37427171 -369.60211668 899.70427171 -347.50211668 900.04427171 C-347.74610449 889.30462373 -347.74610449 889.30462373 -347.99502134 878.34801316 C-348.53508649 852.49202075 -348.64120351 826.64667444 -348.6181823 800.78589392 C-348.61375859 794.51404882 -348.61533243 788.24220436 -348.61608458 781.97035813 C-348.61660246 771.16925734 -348.61357 760.36816362 -348.60784674 749.56706452 C-348.60187689 738.27099539 -348.59807031 726.97492874 -348.59699392 715.67885804 C-348.59692518 714.96971278 -348.59685644 714.26056752 -348.59678562 713.529933 C-348.59644717 709.92679785 -348.59614583 706.3236627 -348.59585875 702.72052754 C-348.59377265 677.36961899 -348.58707589 652.01871363 -348.57755613 626.66780686 C-348.56833349 602.07926537 -348.56126876 577.49072475 -348.55704832 552.90218186 C-348.55691679 552.14081343 -348.55678527 551.379445 -348.55664976 550.5950048 C-348.55533095 542.94723824 -348.55405517 535.29947166 -348.5528109 527.65170508 C-348.55027644 512.08001541 -348.54745519 496.5083258 -348.54445982 480.93663621 C-348.54425388 479.863301 -348.54425388 479.863301 -348.54404379 478.76828224 C-348.5348831 431.19361071 -348.51902169 383.61894105 -348.50211668 336.04427171 C-344.26329126 335.03744051 -342.54182625 335.09947826 -338.75211668 337.35677171 C-337.97352293 337.80665452 -337.19492918 338.25653733 -336.39274168 338.72005296 C-334.50211668 340.04427171 -334.50211668 340.04427171 -333.50211668 342.04427171 C-339.44211668 340.55927171 -339.44211668 340.55927171 -345.50211668 339.04427171 C-345.50211668 507.34427171 -345.50211668 675.64427171 -345.50211668 849.04427171 C-74.24211668 849.04427171 197.01788332 849.04427171 476.49788332 849.04427171 C476.49788332 680.74427171 476.49788332 512.44427171 476.49788332 339.04427171 C472.53788332 340.36427171 468.57788332 341.68427171 464.49788332 343.04427171 C463.17788332 343.37427171 461.85788332 343.70427171 460.49788332 344.04427171 C460.49788332 344.70427171 460.49788332 345.36427171 460.49788332 346.04427171 C458.18538332 347.20052171 458.18538332 347.20052171 455.87288332 348.35677171 C454.95249269 348.81954515 454.03210207 349.28231858 453.08382082 349.75911546 C451.23698353 350.67695454 449.37268193 351.55998901 447.49788332 352.41927171 C444.71216878 353.92820042 442.26194264 355.58283004 439.68538332 357.41927171 C435.91487372 360.1028885 432.12799256 362.46966299 428.05647707 364.66145921 C424.7818494 366.43125798 421.54493598 368.26517992 418.31038332 370.10677171 C417.72804934 370.43540208 417.14571535 370.76403245 416.54573488 371.10262132 C412.74971551 373.26367332 409.11717103 375.60112631 405.49788332 378.04427171 C399.42533747 381.82461151 399.42533747 381.82461151 396.12288332 382.60677171 C395.58663332 382.75114671 395.05038332 382.89552171 394.49788332 383.04427171 C394.16788332 384.03427171 393.83788332 385.02427171 393.49788332 386.04427171 C392.18141213 386.74364703 390.84766181 387.41156304 389.49788332 388.04427171 C389.16788332 388.70427171 388.83788332 389.36427171 388.49788332 390.04427171 C386.75569582 390.64192796 386.75569582 390.64192796 384.62288332 391.10677171 C379.70812871 392.06020891 379.70812871 392.06020891 375.72444582 394.89974046 C373.00622244 397.51781876 370.29146241 398.76876213 366.87288332 400.35677171 C361.45455244 402.94826989 356.60105138 405.85736523 351.74007082 409.41145921 C347.43192854 412.54874749 343.00583196 415.33297518 338.18538332 417.60677171 C335.42896988 418.81647451 335.42896988 418.81647451 334.12288332 421.04427171 C332.03071546 423.61924753 329.75966296 424.10168183 326.68538332 425.13020921 C323.49279121 426.46425663 321.01427233 428.49023407 318.31038332 430.61849046 C314.50730301 433.61013768 311.30670159 435.35729767 306.49788332 436.04427171 C306.49788332 436.70427171 306.49788332 437.36427171 306.49788332 438.04427171 C303.62160215 440.70749501 301.27619242 441.32945647 297.49788332 442.04427171 C297.16788332 442.70427171 296.83788332 443.36427171 296.49788332 444.04427171 C295.67288332 444.29177171 294.84788332 444.53927171 293.99788332 444.79427171 C290.95210295 445.88205041 289.19850416 446.84364008 286.62288332 448.66927171 C282.50340139 451.52655547 278.24538416 453.73858467 273.74788332 455.91927171 C265.62411609 459.87418825 257.41804276 464.12407273 250.32600832 469.77474046 C248.49788332 471.04427171 248.49788332 471.04427171 245.49788332 471.04427171 C245.49788332 471.70427171 245.49788332 472.36427171 245.49788332 473.04427171 C244.79921144 473.38200608 244.10053957 473.71974046 243.38069582 474.06770921 C242.47061769 474.51372483 241.56053957 474.95974046 240.62288332 475.41927171 C239.26550051 476.08056077 239.26550051 476.08056077 237.88069582 476.75520921 C235.4025386 477.9492987 235.4025386 477.9492987 233.49788332 480.04427171 C230.57447126 481.39353881 228.74581016 482.04427171 225.49788332 482.04427171 C225.11116457 482.9762639 225.11116457 482.9762639 224.71663332 483.92708421 C223.05956825 486.80570365 220.772216 487.56081029 217.83772707 488.91927171 C211.85165871 491.79738137 206.28040234 495.48276207 200.81038332 499.23177171 C197.18651918 501.68582707 193.54169634 503.35322263 189.49788332 505.04427171 C187.41412543 506.29212672 185.37972999 507.60233454 183.34163332 508.92317796 C181.49788332 510.04427171 181.49788332 510.04427171 178.87288332 511.04427171 C176.17227484 512.18137001 174.2936788 513.83447565 172.09944582 515.74739671 C168.64747265 518.54265303 164.67242112 520.46520489 160.70100832 522.42317796 C154.83621581 525.39133514 149.18149218 528.74582036 143.49788332 532.04427171 C142.03415285 532.89311936 142.03415285 532.89311936 140.54085207 533.75911546 C135.66864129 536.62475707 135.66864129 536.62475707 131.14632082 540.00130296 C128.14178392 542.31896195 125.10776673 543.84793266 121.68538332 545.48177171 C117.11032108 547.70585912 112.69064059 550.01321332 108.42757082 552.79427171 C106.11152859 554.29454198 103.74588691 555.69846097 101.37288332 557.10677171 C98.52186219 558.80422583 95.72845653 560.5345102 92.99788332 562.41927171 C90.49788332 564.04427171 90.49788332 564.04427171 88.49788332 564.04427171 C88.25940676 564.63724046 88.02093019 565.23020921 87.77522707 565.84114671 C86.22778133 568.51013569 84.63592845 569.619533 82.06038332 571.29427171 C81.27792238 571.81505296 80.49546144 572.33583421 79.68928957 572.87239671 C77.49788332 574.04427171 77.49788332 574.04427171 74.49788332 574.04427171 C74.49788332 574.70427171 74.49788332 575.36427171 74.49788332 576.04427171 C72.84788332 576.37427171 71.19788332 576.70427171 69.49788332 577.04427171 C69.49788332 577.70427171 69.49788332 578.36427171 69.49788332 579.04427171 C67.18788332 579.04427171 64.87788332 579.04427171 62.49788332 579.04427171 C62.49788332 578.38427171 62.49788332 577.72427171 62.49788332 577.04427171 C61.83401613 576.87411546 61.17014894 576.70395921 60.48616457 576.52864671 C55.38936414 575.12981681 51.28016969 573.95263429 47.49788332 570.04427171 C47.49788332 569.38427171 47.49788332 568.72427171 47.49788332 568.04427171 C46.91909426 567.92954515 46.34030519 567.81481858 45.74397707 567.69661546 C43.3184947 566.99217101 41.65556683 566.00494367 39.56038332 564.60677171 C37.26420685 563.11574802 35.3145161 561.97342528 32.74788332 560.98177171 C30.49788332 560.04427171 30.49788332 560.04427171 28.81038332 558.23177171 C25.8746831 555.45475798 22.71200688 554.06830516 19.08772707 552.33333421 C16.05215872 550.82241784 13.24065132 549.08047779 10.39241457 547.24739671 C7.48823711 545.40309432 4.49595137 543.73068499 1.49788332 542.04427171 C1.49788332 541.38427171 1.49788332 540.72427171 1.49788332 540.04427171 C0.91780519 539.88571702 0.33772707 539.72716233 -0.25992918 539.56380296 C-5.77192013 537.91748223 -9.12592458 535.87343979 -13.50211668 532.04427171 C-15.75061409 530.70306273 -18.03379003 529.46806354 -20.35367918 528.25520921 C-22.50211668 527.04427171 -22.50211668 527.04427171 -24.54117918 525.50130296 C-26.41538833 524.10871329 -28.09670062 523.22722819 -30.25211668 522.35677171 C-31.86086668 521.70708421 -31.86086668 521.70708421 -33.50211668 521.04427171 C-33.50211668 520.05427171 -33.50211668 519.06427171 -33.50211668 518.04427171 C-27.75211668 519.91927171 -27.75211668 519.91927171 -25.50211668 521.04427171 C-25.50211668 521.70427171 -25.50211668 522.36427171 -25.50211668 523.04427171 C-24.71836668 523.25052171 -23.93461668 523.45677171 -23.12711668 523.66927171 C-19.04627876 525.21717575 -15.61847098 527.29206036 -11.91617918 529.57942796 C-9.17388435 531.24344181 -6.39873985 532.67218705 -3.50211668 534.04427171 C-3.50211668 534.70427171 -3.50211668 535.36427171 -3.50211668 536.04427171 C-2.63586668 536.29177171 -1.76961668 536.53927171 -0.87711668 536.79427171 C2.71470533 538.12457615 5.33679175 539.89472944 8.49788332 542.04427171 C11.13185305 543.44714689 13.80471456 544.75920641 16.49788332 546.04427171 C16.49788332 546.70427171 16.49788332 547.36427171 16.49788332 548.04427171 C17.11663332 548.35364671 17.73538332 548.66302171 18.37288332 548.98177171 C19.74788332 549.66927171 21.12288332 550.35677171 22.49788332 551.04427171 C22.49788332 551.70427171 22.49788332 552.36427171 22.49788332 553.04427171 C23.79725832 553.16802171 23.79725832 553.16802171 25.12288332 553.29427171 C28.99307928 554.15431526 31.26742739 555.79699802 34.49788332 558.04427171 C36.72390947 558.81366852 36.72390947 558.81366852 38.49788332 559.04427171 C38.49788332 559.70427171 38.49788332 560.36427171 38.49788332 561.04427171 C39.21975832 561.33302171 39.94163332 561.62177171 40.68538332 561.91927171 C43.28954999 562.96093837 45.89371665 564.00260504 48.49788332 565.04427171 C48.49788332 565.70427171 48.49788332 566.36427171 48.49788332 567.04427171 C49.32288332 567.27114671 50.14788332 567.49802171 50.99788332 567.73177171 C53.96338373 568.84383436 55.92541921 569.92296434 58.49788332 571.66927171 C62.03482794 573.92432558 64.2318962 574.95192854 68.49788332 574.04427171 C70.99708801 572.57710467 73.22564598 570.83645891 75.49788332 569.04427171 C79.09346522 566.61934438 80.031917 566.04427171 84.49788332 566.04427171 C84.49788332 565.38427171 84.49788332 564.72427171 84.49788332 564.04427171 C86.06404543 562.87434983 86.06404543 562.87434983 88.27522707 561.57552171 C89.0900757 561.0920427 89.90492434 560.6085637 90.74446535 560.11043382 C91.63246828 559.59360032 92.52047121 559.07676682 93.43538332 558.54427171 C94.34401125 558.00745774 95.25263918 557.47064378 96.18880129 556.91756272 C98.95424222 555.28576432 101.72530921 553.66391414 104.49788332 552.04427171 C106.68977207 550.75895882 108.88100259 549.47253103 111.07210207 548.18587327 C112.44276313 547.38109942 113.81385946 546.57706646 115.18538332 545.7737639 C122.71546658 541.35285343 130.15044917 536.77769962 137.59309816 532.21175218 C144.97981818 527.68428548 152.45894216 523.33648174 159.98616457 519.04817796 C167.35346154 514.84835584 174.66603277 510.57728481 181.87288332 506.10677171 C186.98483138 502.93932064 192.16492581 499.93271876 197.40095949 496.97859788 C201.99024379 494.3736266 206.41766902 491.564003 210.84553957 488.69661546 C214.42681523 486.46557039 218.13496842 484.50818922 221.85725832 482.52474046 C225.19039763 480.65601294 228.30948281 478.54633443 231.42757082 476.34114671 C233.70427517 474.91498474 235.99920024 474.01994796 238.49788332 473.04427171 C239.6857899 472.37216667 240.85352381 471.66310539 241.99788332 470.91927171 C242.69268801 470.47583421 243.38749269 470.03239671 244.10335207 469.57552171 C244.89354738 469.07020921 245.68374269 468.56489671 246.49788332 468.04427171 C254.79374634 462.83716795 263.19976636 457.85658525 271.69832277 452.98909593 C276.10448506 450.45922867 280.44115276 447.85879613 284.71077394 445.10384202 C286.49634549 444.04518348 288.26019012 443.25246802 290.18538332 442.48177171 C293.4672193 441.2351442 293.4672193 441.2351442 295.70882082 439.24349046 C299.09972755 436.56970826 302.67046022 434.5167219 306.43538332 432.41927171 C307.12567629 432.02481858 307.81596926 431.63036546 308.52718019 431.22395921 C312.43182406 429.03291734 316.17322386 427.30309277 320.49788332 426.04427171 C320.49788332 425.38427171 320.49788332 424.72427171 320.49788332 424.04427171 C328.96163402 419.18865056 328.96163402 419.18865056 333.24788332 417.41927171 C336.1999812 416.17030722 338.7705826 414.71095548 341.49788332 413.04427171 C342.48788332 412.71427171 343.47788332 412.38427171 344.49788332 412.04427171 C344.49788332 411.38427171 344.49788332 410.72427171 344.49788332 410.04427171 C345.89973879 408.99446702 345.89973879 408.99446702 347.86507082 407.87239671 C348.58098391 407.45828538 349.29689699 407.04417405 350.03450441 406.6175139 C350.80616945 406.18084397 351.57783449 405.74417405 352.37288332 405.29427171 C353.94600922 404.38838496 355.51892705 403.48213678 357.09163332 402.57552171 C357.85475832 402.13852952 358.61788332 401.70153733 359.40413332 401.25130296 C361.91681062 399.80276325 364.39736362 398.30530321 366.87288332 396.79427171 C381.42288332 388.04427171 381.42288332 388.04427171 384.49788332 388.04427171 C384.49788332 387.38427171 384.49788332 386.72427171 384.49788332 386.04427171 C385.18753176 385.66915452 385.87718019 385.29403733 386.58772707 384.90755296 C387.52745363 384.39579515 388.46718019 383.88403733 389.43538332 383.35677171 C390.43311769 382.8140764 391.43085207 382.27138108 392.45882082 381.71224046 C395.90183249 379.82256696 399.31588239 377.884916 402.72053957 375.92708421 C404.49788332 375.04427171 404.49788332 375.04427171 406.49788332 375.04427171 C406.49788332 374.38427171 406.49788332 373.72427171 406.49788332 373.04427171 C408.45373657 372.03942967 410.41264569 371.04053366 412.37288332 370.04427171 C413.46343019 369.48739671 414.55397707 368.93052171 415.67757082 368.35677171 C418.49788332 367.04427171 418.49788332 367.04427171 420.49788332 367.04427171 C420.49788332 366.38427171 420.49788332 365.72427171 420.49788332 365.04427171 C422.45373657 364.03942967 424.41264569 363.04053366 426.37288332 362.04427171 C427.46343019 361.48739671 428.55397707 360.93052171 429.67757082 360.35677171 C432.49788332 359.04427171 432.49788332 359.04427171 434.49788332 359.04427171 C434.49788332 358.38427171 434.49788332 357.72427171 434.49788332 357.04427171 C434.98555178 356.77799973 435.47322023 356.51172776 435.97566652 356.23738694 C448.85732903 349.19741363 448.85732903 349.19741363 461.23616457 341.32161546 C463.6737491 339.94494855 465.74088686 339.43952253 468.49788332 339.04427171 C468.49788332 338.38427171 468.49788332 337.72427171 468.49788332 337.04427171 C471.74701102 334.72346621 474.55667623 333.60730129 478.49788332 333.04427171 C479.75938889 336.82878843 479.63522181 340.36162766 479.62372446 344.30387139 C479.6251779 345.16047677 479.62663134 346.01708215 479.62812883 346.89964527 C479.63180435 349.79602626 479.62829507 352.69235513 479.62486696 355.58873582 C479.62601824 357.67655071 479.62760581 359.76436539 479.62959421 361.85217965 C479.63378819 367.61121589 479.63169634 373.37023567 479.62860799 379.12927198 C479.62635375 385.33471454 479.62983407 391.54015418 479.63258791 397.74559617 C479.63678964 409.21841108 479.63640763 420.69121862 479.63367644 432.16403349 C479.63115952 442.79017868 479.63050475 453.41632193 479.63169909 464.04246736 C479.63181366 465.10036473 479.63181366 465.10036473 479.63193056 466.17963376 C479.63224193 469.04314005 479.63256033 471.90664634 479.63289032 474.77015263 C479.63595383 501.67669476 479.6331715 528.58323356 479.62779342 555.48977517 C479.62307105 579.29586567 479.6234519 603.1019508 479.62825441 626.90804124 C479.63364055 653.69636417 479.63571292 680.48468412 479.63264215 707.27300751 C479.6323215 710.14552196 479.63200866 713.0180364 479.63169909 715.89055085 C479.63162001 716.59774697 479.63154093 717.30494309 479.63145946 718.03356939 C479.63033252 728.61054388 479.63163284 739.18751619 479.63417864 749.76449037 C479.63707408 761.85383516 479.63615556 773.94317208 479.63089789 786.03251649 C479.62831111 792.17922008 479.62716743 798.32591298 479.63054705 804.47261643 C479.64650258 836.00890588 479.27055756 867.51719341 478.49788332 899.04427171 C480.4787493 899.0207547 482.45961466 898.99718494 484.44047976 898.973593 C485.54357422 898.96047326 486.64666868 898.94735353 487.78319025 898.93383622 C492.10551701 898.88120562 496.42767761 898.81988864 500.74986696 898.75697923 C504.20457016 898.70721317 507.65924362 898.66072457 511.11409426 898.62239671 C515.08594355 898.57817815 519.05749403 898.51861029 523.02913332 898.45833421 C524.25652224 898.446783 525.48391115 898.43523179 526.74849367 898.42333055 C533.00690413 898.31618532 538.50805902 897.88607204 544.49788332 896.04427171 C545.71991457 895.69235765 545.71991457 895.69235765 546.96663332 895.33333421 C557.06724466 892.03121127 564.58198216 887.25066328 572.49788332 880.04427171 C572.82788332 879.38427171 573.15788332 878.72427171 573.49788332 878.04427171 C574.15788332 878.04427171 574.81788332 878.04427171 575.49788332 878.04427171 C575.78663332 877.28114671 576.07538332 876.51802171 576.37288332 875.73177171 C577.49788332 873.04427171 577.49788332 873.04427171 579.49788332 870.04427171 C580.15788332 870.04427171 580.81788332 870.04427171 581.49788332 870.04427171 C582.15788332 867.40427171 582.81788332 864.76427171 583.49788332 862.04427171 C584.15788332 862.04427171 584.81788332 862.04427171 585.49788332 862.04427171 C585.81430797 860.5450947 586.12577181 859.04487057 586.43538332 857.54427171 C586.60940676 856.70895921 586.78343019 855.87364671 586.96272707 855.01302171 C588.33838744 847.38162113 588.64384875 840.04025741 588.63654852 832.29952073 C588.63939074 831.12700051 588.64223296 829.95448028 588.6451613 828.74642915 C588.65204346 825.49528711 588.65450185 822.24417659 588.65508872 818.99302845 C588.65682195 815.45483141 588.66430965 811.91664576 588.67106527 808.3784554 C588.68211147 802.17862784 588.68948982 795.97880433 588.69446421 789.77896905 C588.70187755 780.56005155 588.7149624 771.34114819 588.72920996 762.12223903 C588.75301635 746.61431008 588.77222228 731.10637862 588.7888093 715.59844041 C588.80524834 700.24290712 588.82373026 684.88737852 588.84494257 669.53185105 C588.84691898 668.09988653 588.84691898 668.09988653 588.84893532 666.63899343 C588.85563737 661.79087412 588.86237595 656.94275485 588.86912858 652.09463561 C588.91689583 617.75249412 588.96007965 583.41034826 589.00056887 549.06819749 C589.03991487 515.70458747 589.08133646 482.34098109 589.12556887 448.97737718 C589.1269314 447.94902486 589.12829393 446.92067255 589.12969774 445.86115804 C589.14338308 435.5340524 589.15711062 425.20694682 589.17086909 414.87984128 C589.19889588 393.84220382 589.22664097 372.80456601 589.25421572 351.76692796 C589.25611802 350.31600263 589.25611802 350.31600263 589.25805874 348.83576569 C589.34271935 284.23860694 589.42081303 219.64143991 589.49788332 155.04427171 C587.91464971 155.80863706 586.33452435 156.57944222 584.75569582 157.35286546 C583.43529299 157.99566453 583.43529299 157.99566453 582.08821535 158.65144944 C579.64693686 159.96412558 577.54810985 161.39680673 575.37288332 163.10677171 C572.26247555 165.55155221 569.18726952 167.30179935 565.62288332 168.99349046 C559.56628725 171.98838815 553.92810334 175.68948301 548.43538332 179.60677171 C536.56663332 188.04427171 536.56663332 188.04427171 532.49788332 188.04427171 C532.49788332 187.38427171 532.49788332 186.72427171 532.49788332 186.04427171 C533.15788332 186.04427171 533.81788332 186.04427171 534.49788332 186.04427171 C534.49788332 185.38427171 534.49788332 184.72427171 534.49788332 184.04427171 C536.47788332 183.05427171 538.45788332 182.06427171 540.49788332 181.04427171 C540.55244035 178.06485172 540.59182183 175.0864564 540.62288332 172.10677171 C540.63964113 171.27597093 540.65639894 170.44517015 540.67366457 169.58919358 C540.72858466 162.5319618 540.65091858 155.62791402 535.99788332 150.04427171 C533.6841314 148.05009196 533.6841314 148.05009196 531.49788332 147.04427171 C531.49788332 146.38427171 531.49788332 145.72427171 531.49788332 145.04427171 C525.29305532 142.85190801 519.57346135 142.75906071 513.03104067 142.77925706 C511.88196472 142.77487579 510.73288877 142.77049452 509.54899234 142.76598048 C505.70159405 142.75366658 501.85433223 142.75546823 498.00691652 142.75716233 C495.2470585 142.75225191 492.48721125 142.74431563 489.72736025 142.73645616 C483.78467364 142.72101779 477.84201073 142.71259504 471.89930582 142.70874619 C463.29414541 142.70298881 454.68904851 142.68438538 446.08391621 142.66230565 C432.104484 142.62660051 418.1250482 142.59828317 404.1455884 142.57600999 C403.30934127 142.574675 402.47309414 142.57334001 401.61150619 142.57196456 C395.67779886 142.56253991 389.74409114 142.55337789 383.81038332 142.54427171 C377.04093315 142.5338789 370.2714832 142.52335985 363.50203371 142.51253343 C362.66832486 142.51120268 361.83461601 142.50987194 360.97564325 142.50850087 C347.05359266 142.48603797 333.13156909 142.45582612 319.20954627 142.42014098 C310.63118944 142.39852774 302.05287469 142.38386984 293.47449216 142.37830222 C287.5907828 142.37404113 281.70711348 142.36276694 275.82342634 142.34607828 C272.43358133 142.33671404 269.04387479 142.3316428 265.65400743 142.33314157 C261.96913467 142.33430602 258.28448636 142.32324143 254.59964418 142.30928636 C253.01336646 142.31423482 253.01336646 142.31423482 251.39504272 142.31928325 C240.64076956 142.25238825 230.69915504 140.33795585 220.49788332 137.04427171 C218.41462418 136.41902446 216.33128598 135.79404058 214.24788332 135.16927171 C208.31459362 133.35066575 202.50052981 131.27005944 196.68928957 129.09505296 C193.61759612 128.08368755 190.69667366 127.48332136 187.49788332 127.04427171 C183.51294419 113.20324979 182.67236825 98.73842861 182.29475832 84.39974046 C182.26398195 83.31604173 182.23320559 82.232343 182.2014966 81.11580491 C182.15013764 79.02747319 182.11648753 76.93861037 182.10286379 74.84969163 C182.08111086 73.90069993 182.05935793 72.95170823 182.03694582 71.97395921 C182.02872805 71.1410637 182.02051027 70.30816819 182.01204348 69.45003343 C181.27329827 65.99343546 180.05878535 64.49124343 177.49788332 62.04427171 C174.47418857 61.54735845 172.01232111 61.37615266 168.98871279 61.42281175 C168.12169869 61.41642292 167.25468458 61.4100341 166.36139733 61.40345168 C163.45061521 61.38816772 160.54118681 61.40868529 157.63045168 61.42903733 C155.54608124 61.42553719 153.46171346 61.41987982 151.37735415 61.41222215 C145.71210426 61.39795019 140.04733832 61.41505899 134.38213468 61.43850732 C128.46047849 61.45857981 122.53884311 61.45273869 116.61716127 61.45039964 C106.67294225 61.45045324 96.72891303 61.47023204 86.78474855 61.50227952 C75.27736082 61.53918388 63.7702217 61.54795404 52.26278251 61.54098201 C41.20493622 61.53468376 30.14717545 61.54541809 19.08934641 61.56494737 C14.37766794 61.57313584 9.66603309 61.57582826 4.95434809 61.57425523 C-0.59015501 61.57337832 -6.13442066 61.58754011 -11.67886114 61.61348176 C-13.7174777 61.62066304 -15.75611948 61.62271781 -17.79474592 61.61936402 C-20.57006753 61.6156682 -23.34468884 61.63033026 -26.11992979 61.64986253 C-26.93334383 61.6445346 -27.74675786 61.63920668 -28.58482081 61.6337173 C-32.78658376 61.64712631 -32.78658376 61.64712631 -36.48085546 63.43095708 C-41.046512 70.64345117 -39.77994875 81.87998859 -39.73258543 90.03255296 C-39.73212721 91.33452119 -39.73166899 92.63648942 -39.73119688 93.97791123 C-39.72964604 96.71175702 -39.72146132 99.44546925 -39.70792723 102.17928147 C-39.69085482 105.67033414 -39.68711618 109.16124204 -39.68787241 112.65233159 C-39.6875344 116.00825786 -39.67869625 119.36413731 -39.67008543 122.72005296 C-39.66841619 124.59048013 -39.66841619 124.59048013 -39.66671324 126.4986937 C-39.65714346 128.24662469 -39.65714346 128.24662469 -39.64738035 130.02986741 C-39.64356855 131.04925904 -39.63975676 132.06865067 -39.63582945 133.11893296 C-39.49674543 136.16178274 -39.06181716 139.05252802 -38.50211668 142.04427171 C-37.51211668 142.04427171 -36.52211668 142.04427171 -35.50211668 142.04427171 C-35.17211668 143.36427171 -34.84211668 144.68427171 -34.50211668 146.04427171 C-33.34051558 146.04242812 -32.17891449 146.04058454 -30.98211336 146.03868508 C-3.39019321 145.99534242 24.20172353 145.96237718 51.79367071 145.94214105 C55.19190114 145.93963972 58.59013151 145.93705107 61.98836184 145.93440843 C62.66487059 145.93388381 63.34137935 145.93335918 64.03838838 145.93281867 C74.98338203 145.9241229 85.92835461 145.9083575 96.87333577 145.88996612 C108.10909057 145.871244 119.34483487 145.86029974 130.58060604 145.85609472 C136.88937115 145.85348815 143.19808852 145.84736469 149.50683832 145.83281159 C155.44683881 145.81922036 161.38677195 145.81505222 167.32678652 145.81805634 C169.50479991 145.81750688 171.6828156 145.81353866 173.86081553 145.80586076 C176.83989077 145.79587547 179.81871343 145.79831596 182.79779482 145.80376267 C183.65482451 145.79793699 184.5118542 145.79211131 185.39485449 145.78610909 C190.99356724 145.81367925 196.0857095 146.617707 201.49788332 148.04427171 C201.49788332 148.70427171 201.49788332 149.36427171 201.49788332 150.04427171 C202.75600832 150.41552171 204.01413332 150.78677171 205.31038332 151.16927171 C214.34792921 154.21020696 223.03568386 158.90820652 229.49788332 166.04427171 C229.82788332 167.03427171 230.15788332 168.02427171 230.49788332 169.04427171 C231.15788332 169.04427171 231.81788332 169.04427171 232.49788332 169.04427171 C232.49788332 169.70427171 232.49788332 170.36427171 232.49788332 171.04427171 C233.07538332 171.22989671 233.65288332 171.41552171 234.24788332 171.60677171 C239.51086145 174.96922996 240.77177377 180.59927977 242.12288332 186.35677171 C242.59763097 188.58250038 243.05390859 190.81220094 243.49788332 193.04427171 C243.66216703 193.77132625 243.82645075 194.49838078 243.99571276 195.24746728 C245.27063359 201.08228691 245.78629574 206.56406244 245.75667238 212.5262053 C245.76192934 213.86010552 245.76192934 213.86010552 245.7672925 215.22095323 C245.77601499 218.12828728 245.77029341 221.03537315 245.76350832 223.94270921 C245.76485793 225.98475273 245.76680093 228.02679593 245.76930666 230.06883836 C245.7722453 234.33704795 245.76800181 238.60517349 245.75862551 242.87337327 C245.74724634 248.31556181 245.75378882 253.75755271 245.76577044 259.19973397 C245.77303554 263.41390528 245.7706796 267.6280306 245.76551485 271.84220338 C245.76419043 273.8474501 245.76578321 275.85270114 245.77047396 277.85794282 C245.78918339 288.10442759 245.73887944 297.9879424 243.49788332 308.04427171 C243.25167238 309.2856389 243.00546144 310.52700608 242.75178957 311.80599046 C242.40954348 313.25425218 242.40954348 313.25425218 242.06038332 314.73177171 C241.83479738 315.7256389 241.60921144 316.71950608 241.37678957 317.74349046 C241.08675051 318.50274827 240.79671144 319.26200608 240.49788332 320.04427171 C239.50788332 320.37427171 238.51788332 320.70427171 237.49788332 321.04427171 C237.25038332 321.86927171 237.00288332 322.69427171 236.74788332 323.54427171 C234.05439433 331.08604087 228.30638904 336.56741244 222.19710207 341.53645921 C220.25842758 343.12808485 220.25842758 343.12808485 218.49788332 346.04427171 C217.83788332 346.04427171 217.17788332 346.04427171 216.49788332 346.04427171 C216.49788332 346.70427171 216.49788332 347.36427171 216.49788332 348.04427171 C214.51788332 348.04427171 212.53788332 348.04427171 210.49788332 348.04427171 C210.16788332 349.03427171 209.83788332 350.02427171 209.49788332 351.04427171 C208.50788332 351.04427171 207.51788332 351.04427171 206.49788332 351.04427171 C206.49788332 351.70427171 206.49788332 352.36427171 206.49788332 353.04427171 C192.15829409 355.82122577 178.32465847 356.47080542 163.74373293 356.41658616 C161.42220825 356.41902024 159.10068462 356.42274549 156.77916384 356.42764878 C150.53389178 356.43697236 144.28877878 356.42770734 138.04351926 356.41431665 C131.48326848 356.40291973 124.92302459 356.40711568 118.36276674 356.40906358 C107.36066121 356.41048354 96.35861441 356.39899898 85.3565259 356.38045335 C74.05963191 356.36141611 62.76280978 356.35437793 51.4659009 356.35994554 C37.80190336 356.36665995 24.13795355 356.36334796 10.47395945 356.35084176 C5.27125952 356.34620803 0.06857905 356.34531654 -5.13412237 356.34742761 C-11.25660979 356.34931486 -17.37900549 356.34117292 -23.501472 356.32536721 C-25.74357616 356.32113593 -27.98568966 356.320266 -30.22779608 356.32305741 C-33.29529318 356.32629643 -36.36251914 356.31715449 -39.42998838 356.30496812 C-40.31005444 356.30874744 -41.1901205 356.31252677 -42.09685522 356.31642061 C-47.36076621 356.2795992 -52.21436224 355.6556322 -57.35133213 354.49587625 C-60.07230433 353.92454826 -62.72696807 353.80666918 -65.50211668 353.73177171 C-70.82722119 353.36168722 -74.62878103 351.91663625 -79.24821043 349.29817796 C-81.51593755 347.9694661 -81.51593755 347.9694661 -84.15446043 347.01302171 C-86.95984818 345.85539082 -88.40972336 344.20641147 -90.50211668 342.04427171 C-91.49211668 341.71427171 -92.48211668 341.38427171 -93.50211668 341.04427171 C-93.50211668 340.38427171 -93.50211668 339.72427171 -93.50211668 339.04427171 C-94.16211668 339.04427171 -94.82211668 339.04427171 -95.50211668 339.04427171 C-100.40491024 334.52854079 -104.10885851 330.26674294 -106.50211668 324.04427171 C-106.97238279 323.49835374 -107.44264891 322.95243577 -107.92716551 322.38997483 C-110.08678508 319.17347742 -110.8272002 315.80776879 -111.63883543 312.07552171 C-111.81122236 311.28681687 -111.98360929 310.49811204 -112.16122007 309.68550706 C-113.87371432 301.20379082 -114.1923416 292.77699029 -114.28605223 284.14583421 C-114.31491018 281.51754099 -114.37023983 278.89078186 -114.42985106 276.26302171 C-114.59025253 268.10990423 -114.59828022 260.1441672 -113.50211668 252.04427171 C-112.51211668 251.71427171 -111.52211668 251.38427171 -110.50211668 251.04427171 C-109.29329572 249.04410704 -109.29329572 249.04410704 -108.50211668 247.04427171 C-106.85211668 247.04427171 -105.20211668 247.04427171 -103.50211668 247.04427171 C-103.50211668 246.38427171 -103.50211668 245.72427171 -103.50211668 245.04427171 C-102.29813231 244.83931077 -101.09414793 244.63434983 -99.85367918 244.42317796 C-98.27812976 244.15120812 -96.70261047 243.87906364 -95.12711668 243.60677171 C-94.33305418 243.47206468 -93.53899168 243.33735765 -92.72086668 243.19856858 C-88.48816685 242.53009581 -88.48816685 242.53009581 -84.50211668 241.04427171 C-83.17191472 240.88946372 -81.83754594 240.7694289 -80.50211668 240.66927171 C-76.07678487 240.22673853 -72.08033703 239.14172934 -67.86149168 237.76302171 C-63.94830635 236.57092552 -60.41970302 235.99179726 -56.33317137 236.01888108 C-55.06892332 236.02725999 -53.80467527 236.0356389 -52.50211668 236.04427171 C-52.49402983 236.72443345 -52.48594297 237.40459519 -52.47761106 238.1053679 C-52.3916207 245.17813043 -52.29211921 252.25061091 -52.18473387 259.3230803 C-52.14642701 261.96333163 -52.11157719 264.60363546 -52.08024168 267.24397874 C-52.03462879 271.03697572 -51.97662712 274.82961076 -51.91617918 278.62239671 C-51.89885237 280.39601579 -51.89885237 280.39601579 -51.88117552 282.20546556 C-51.85137098 283.85672441 -51.85137098 283.85672441 -51.82096434 285.54134202 C-51.80097883 286.99362199 -51.80097883 286.99362199 -51.78058958 288.47524095 C-51.49193178 291.13823178 -50.74929302 292.70953615 -49.50211668 295.04427171 C-21.03396065 295.13548795 7.43417704 295.20629272 35.90245055 295.24853303 C39.26206119 295.25353596 42.62167155 295.25871324 45.98128176 295.26399827 C46.65013022 295.26504751 47.31897869 295.26609675 48.00809529 295.26717779 C58.84333639 295.28459129 69.67849274 295.31613413 80.51368353 295.35288289 C91.62849595 295.3902661 102.74327376 295.41220252 113.85814738 295.42062569 C120.10254165 295.4258494 126.34674362 295.43816272 132.59107637 295.46719193 C138.46463254 295.49427705 144.33791658 295.50273063 150.21152925 295.49670243 C152.37069091 295.49780576 154.52986136 295.50580045 156.68896914 295.52109361 C159.63063676 295.54091321 162.57126882 295.53624005 165.512959 295.52528977 C166.37288006 295.53694114 167.23280111 295.54859251 168.11878037 295.56059694 C172.91579439 295.52113086 172.91579439 295.52113086 177.01300955 293.15876508 C180.04604066 288.83966112 179.62063744 284.17281005 179.61140871 279.0508635 C179.61162775 278.0256434 179.61162775 278.0256434 179.61185122 276.97971177 C179.61115794 274.7342717 179.60339306 272.48891593 179.59553957 270.24349046 C179.59367331 268.6812198 179.59225039 267.11894856 179.59125185 265.5566771 C179.58744304 261.45497086 179.57762678 257.35330032 179.56654787 253.25160813 C179.55629852 249.06205819 179.55174669 244.87250246 179.54671144 240.68294358 C179.53600299 232.47003662 179.51894629 224.25715861 179.49788332 216.04427171 C178.83788332 215.71427171 178.17788332 215.38427171 177.49788332 215.04427171 C176.87288332 211.98177171 176.87288332 211.98177171 176.49788332 209.04427171 C175.3788109 209.04188335 174.25973848 209.039495 173.10675478 209.03703427 C145.82896308 208.97813939 118.551259 208.90219503 91.27356386 208.8085568 C78.08206912 208.76366467 64.89060098 208.72423486 51.69905519 208.69783616 C40.1961693 208.67480273 28.69336806 208.64134516 17.19054937 208.59557015 C11.10457606 208.57170998 5.01868621 208.55293404 -1.06733274 208.5466578 C-6.80634477 208.54057428 -12.54514344 208.52045721 -18.28407621 208.48999619 C-20.38011517 208.48126808 -22.47618207 208.47748242 -24.57223845 208.47926354 C-36.63243254 208.48627027 -47.71814137 207.66773472 -59.50211668 205.04427171 C-61.33354611 204.74087954 -63.1665285 204.44639371 -65.00211668 204.16927171 C-71.87495405 202.78081971 -76.71250074 198.99354151 -81.50211668 194.04427171 C-82.47149168 193.40489671 -83.44086668 192.76552171 -84.43961668 192.10677171 C-88.55292545 189.33658417 -91.90725288 186.82886312 -93.50211668 182.04427171 C-94.16211668 181.71427171 -94.82211668 181.38427171 -95.50211668 181.04427171 C-99.57787795 175.12784406 -100.98458737 168.99822471 -102.50211668 162.04427171 C-102.74798993 161.0918177 -102.74798993 161.0918177 -102.99883032 160.12012219 C-104.45244535 154.26082741 -104.79860764 148.74692305 -104.79264402 142.72615647 C-104.79936125 141.73628739 -104.80607847 140.74641831 -104.81299925 139.7265532 C-104.83187713 136.47954266 -104.8358979 133.23273983 -104.83805418 129.98567796 C-104.84448782 127.71321109 -104.85121659 125.44074505 -104.8582263 123.16827989 C-104.87017253 118.41492885 -104.87390971 113.66165036 -104.87272215 108.90828538 C-104.8725188 102.83462205 -104.89985003 96.76142576 -104.93426657 90.68787313 C-104.956561 85.99767528 -104.96055895 81.30758954 -104.9595027 76.61734414 C-104.96185369 74.37876801 -104.97064873 72.14018855 -104.98616743 69.90166497 C-105.00588409 66.76470857 -104.99996728 63.62875594 -104.98795652 60.49178147 C-104.99919554 59.57874757 -105.01043455 58.66571366 -105.02201414 57.72501206 C-104.96625078 51.95922763 -103.84236066 47.53217632 -101.48210669 42.26730847 C-100.15484652 39.25651435 -99.33151768 36.2236422 -98.50211668 33.04427171 C-97.84211668 33.04427171 -97.18211668 33.04427171 -96.50211668 33.04427171 C-96.23399168 32.48739671 -95.96586668 31.93052171 -95.68961668 31.35677171 C-91.60750479 23.40739593 -85.57618174 17.46303678 -78.50211668 12.04427171 C-77.84211668 12.04427171 -77.18211668 12.04427171 -76.50211668 12.04427171 C-76.50211668 11.38427171 -76.50211668 10.72427171 -76.50211668 10.04427171 C-52.74574432 -2.58649073 -26.08138451 -0.19982978 0 0 Z " fill="#1A3D67" transform="translate(641.5021166801453,147.9557282924652)"/>
</svg>